# xmcd CD database file
#
# Track frame offsets:
#	150
#	22355
#	41175
#	54205
#	77792
#	96462
#	104320
#	137512
#	161562
#	171542
#	192075
#
# Disc length: 2742 seconds
#
# Revision: 0
# Processed by: cddbd v1.5.1PL0 Copyright (c) Steve Scherf et al.
# Submitted via: CDex 1.51
#
DISCID=970ab40b
DTITLE=Carmen - Fandangos In Space
DYEAR=1973
DGENRE=Progressive Rock
TTITLE0=Bulerias A. Cante (Song) B. Baile (Dance) C. Reprise
TTITLE1=Bullfight
TTITLE2=Stepping Stone
TTITLE3=Sailor Song
TTITLE4=Lonely House
TTITLE5=Por Tarrantos
TTITLE6=Looking Outside (My Window) A. Theme B. Zorongo C. Finale
TTITLE7=Tales Of Spain
TTITLE8=Retirando
TTITLE9=Fandangos In Space
TTITLE10=Repise Finale
EXTD=YEAR: 1973
EXTT0=
EXTT1=
EXTT2=
EXTT3=
EXTT4=
EXTT5=
EXTT6=
EXTT7=
EXTT8=
EXTT9=
EXTT10=
PLAYORDER=
